HIERARCHY
ROOT SpineBase
{
  OFFSET 0.000000 0.000000 0.000000
  CHANNELS 6 Xposition Yposition Zposition Zrotation Xrotation Yrotation
  JOINT SpineMid
  {
    OFFSET 0.000000 33.700498 0.000000
    CHANNELS 3 Zrotation Xrotation Yrotation
    JOINT SpineShoulder
    {
      OFFSET -0.995645 25.120810 -1.065551
      CHANNELS 3 Zrotation Xrotation Yrotation
      JOINT Neck
      {
        OFFSET 1.026905 8.022528 -0.751537
        CHANNELS 3 Zrotation Xrotation Yrotation
        JOINT Head
        {
          OFFSET 3.413668 11.193203 6.059334
          CHANNELS 3 Zrotation Xrotation Yrotation
          End Site
          {
            OFFSET 0 0 0
          }
        }
      }
      JOINT ShoulderLeft
      {
        OFFSET -5.886573 -3.487825 -13.222115
        CHANNELS 3 Zrotation Xrotation Yrotation
        JOINT ElbowLeft
        {
          OFFSET -5.055506 -25.707615 -6.941290
          CHANNELS 3 Zrotation Xrotation Yrotation
          JOINT WristLeft
          {
            OFFSET 0.810674 -22.137202 -4.130163
            CHANNELS 3 Zrotation Xrotation Yrotation
            JOINT HandLeft
            {
              OFFSET -2.785168 -7.899167 0.008373
              CHANNELS 3 Zrotation Xrotation Yrotation
              JOINT HandTipLeft
              {
                OFFSET 0.739517 -8.235265 0.485863
                CHANNELS 3 Zrotation Xrotation Yrotation
                End Site
                {
                  OFFSET 0 0 0
                }
              }
              JOINT ThumbLeft
              {
                OFFSET -2.652209 -1.312778 -2.584357
                CHANNELS 3 Zrotation Xrotation Yrotation
                End Site
                {
                  OFFSET 0 0 0
                }
              }
            }
          }
        }
      }
      JOINT ShoulderRight
      {
        OFFSET 9.883937 -6.826391 8.551627
        CHANNELS 3 Zrotation Xrotation Yrotation
        JOINT ElbowRight
        {
          OFFSET 1.569142 -26.375799 1.491551
          CHANNELS 3 Zrotation Xrotation Yrotation
          JOINT WristRight
          {
            OFFSET 0.209867 -26.272293 2.786460
            CHANNELS 3 Zrotation Xrotation Yrotation
            JOINT HandRight
            {
              OFFSET -0.854817 -4.498618 6.138929
              CHANNELS 3 Zrotation Xrotation Yrotation
              JOINT HandTipRight
              {
                OFFSET 1.743021 -3.156916 1.959676
                CHANNELS 3 Zrotation Xrotation Yrotation
                End Site
                {
                  OFFSET 0 0 0
                }
              }
              JOINT ThumbRight
              {
                OFFSET -1.493463 0.311760 -5.555834
                CHANNELS 3 Zrotation Xrotation Yrotation
                End Site
                {
                  OFFSET 0 0 0
                }
              }
            }
          }
        }
      }
    }
  }
  JOINT HipLeft
  {
    OFFSET -4.936714 2.051413 -8.206466
    CHANNELS 3 Zrotation Xrotation Yrotation
    JOINT KneeLeft
    {
      OFFSET -10.583584 -29.477830 -1.778383
      CHANNELS 3 Zrotation Xrotation Yrotation
      JOINT AnkleLeft
      {
        OFFSET -9.226022 -37.069601 8.583068
        CHANNELS 3 Zrotation Xrotation Yrotation
        JOINT FootLeft
        {
          OFFSET 2.321418 -6.860768 -2.391519
          CHANNELS 3 Zrotation Xrotation Yrotation
          End Site
          {
            OFFSET 0 0 0
          }
        }
      }
    }
  }
  JOINT HipRight
  {
    OFFSET 5.161389 0.591461 1.097879
    CHANNELS 3 Zrotation Xrotation Yrotation
    JOINT KneeRight
    {
      OFFSET -2.627106 -32.171799 6.238981
      CHANNELS 3 Zrotation Xrotation Yrotation
      JOINT AnkleRight
      {
        OFFSET -3.604732 -35.407853 13.675966
        CHANNELS 3 Zrotation Xrotation Yrotation
        JOINT FootRight
        {
          OFFSET 4.535721 -4.909813 -3.346678
          CHANNELS 3 Zrotation Xrotation Yrotation
          End Site
          {
            OFFSET 0 0 0
          }
        }
      }
    }
  }
}
MOTION
Frames: 8
Frame Time: 0.033333
-9.044055 74.929291 247.962619 -0.000000 0.000000 -42.657324 0.000000 0.000000 42.657324 -0.000000 0.000000 0.000000 -0.000000 0.000000 0.000000 0.000000 0.000000 0.000000 -0.000000 0.000000 0.000000 -0.000000 0.000000 0.000000 -0.000000 0.000000 0.000000 -0.000000 0.000000 0.000000 0.000000 0.000000 0.000000 0.000000 0.000000 0.000000 -0.000000 0.000000 0.000000 -0.000000 0.000000 0.000000 -0.000000 0.000000 0.000000 -0.000000 0.000000 0.000000 0.000000 0.000000 0.000000 0.000000 0.000000 0.000000 0.000000 0.000000 42.657324 -0.000000 0.000000 0.000000 -0.000000 0.000000 0.000000 0.000000 0.000000 0.000000 0.000000 0.000000 42.657324 -0.000000 0.000000 0.000000 -0.000000 0.000000 0.000000 0.000000 0.000000 0.000000
-8.903674 74.927191 247.861424 0.173856 0.147786 -42.311300 -0.029084 -0.226320 42.311018 1.306208 0.090195 0.109964 -1.306380 -0.087665 -0.111991 0.000000 0.000000 0.000000 -1.986414 0.632793 -0.066309 -0.130854 0.342323 0.149345 2.819758 0.648973 -0.783266 -3.098365 -0.783107 0.575209 0.000000 0.000000 0.000000 0.000000 0.000000 0.000000 -1.306380 -0.087665 -0.111991 0.200746 -1.923308 0.009279 0.817101 7.696941 0.214553 -9.064024 5.307032 0.778549 0.000000 0.000000 0.000000 0.000000 0.000000 0.000000 0.761481 -0.605228 42.588949 -0.325668 0.813926 -0.269881 -0.000000 0.000000 0.000000 0.000000 0.000000 0.000000 -0.029084 -0.226320 42.311018 -0.000000 0.000000 0.000000 -3.502884 -6.101658 -3.676675 0.000000 0.000000 0.000000
-8.801056 74.937993 247.809720 0.283037 0.245740 -42.070405 -0.045451 -0.372064 42.069651 2.453092 0.165649 0.205678 -2.453680 -0.156693 -0.212580 0.000000 0.000000 0.000000 -3.597702 1.149197 -0.148754 -0.160773 0.550429 0.261994 5.607047 0.892442 -1.239990 -6.127390 -1.171314 0.858039 0.000000 0.000000 0.000000 0.000000 0.000000 0.000000 -2.453680 -0.156693 -0.212580 0.382811 -3.705341 0.023294 1.670351 15.298805 0.265066 -17.264619 9.943062 1.502634 0.000000 0.000000 0.000000 0.000000 0.000000 0.000000 1.377959 -1.012567 42.563467 -1.309961 2.041545 -0.759350 0.981019 0.200876 0.486616 0.000000 0.000000 0.000000 -0.045451 -0.372064 42.069651 -0.000000 0.000000 0.000000 -6.951974 -11.183875 -7.174879 0.000000 0.000000 0.000000
-8.736203 74.961698 247.807509 0.327581 0.293909 -41.938926 -1.114222 -0.692905 41.907193 4.406847 -0.294532 0.343983 -3.443480 -0.208003 -0.301094 0.000000 0.000000 0.000000 -4.836495 1.547756 -0.250346 -0.095865 0.634322 0.337950 8.360931 0.752387 -1.373889 -9.067444 -1.169405 0.916612 0.000000 0.000000 0.000000 0.000000 0.000000 0.000000 -3.443480 -0.208003 -0.301094 0.545497 -5.338511 0.040411 2.559966 22.566608 0.146826 -23.464740 12.889204 1.836737 0.000000 0.000000 0.000000 0.000000 0.000000 0.000000 1.867303 -1.227257 42.584405 -1.846852 2.733614 -1.002595 1.327794 0.156108 0.659640 0.000000 0.000000 0.000000 -0.047247 -0.437560 41.937905 -0.000000 0.000000 0.000000 -10.108228 -15.153465 -10.268203 0.000000 0.000000 0.000000
-8.709115 74.998305 247.854789 0.307394 0.292235 -41.919784 -1.343386 -0.804123 41.876114 5.505544 -0.316411 0.436923 -4.399710 -1.075252 -0.059907 0.000000 0.000000 0.000000 -5.705587 1.827093 -0.373191 0.061242 0.600393 0.377772 11.089364 0.250177 -1.180075 -11.908017 -0.777644 0.806955 0.000000 0.000000 0.000000 0.000000 0.000000 0.000000 -4.277558 -0.242422 -0.377045 0.688163 -6.817131 0.059079 3.477944 29.265810 -0.133758 -27.343171 13.947784 1.672150 0.000000 0.000000 0.000000 0.000000 0.000000 0.000000 2.241960 -1.252582 42.654391 -2.306526 3.214033 -1.165285 1.567643 0.004388 0.777987 0.000000 0.000000 0.000000 0.321340 -1.151333 41.944148 0.223028 0.779027 -0.021913 -12.790227 -18.068445 -12.786688 0.000000 0.000000 0.000000
-8.719791 75.047814 247.951561 0.222237 0.240552 -42.014486 -1.498754 -0.858375 41.960340 6.421637 -0.300729 0.513931 -5.082480 -1.261475 -0.071209 0.000000 0.000000 0.000000 -6.207558 1.985737 -0.518442 0.311554 0.451231 0.382391 13.802984 -0.590810 -0.646228 -14.644868 0.009010 0.572798 0.000000 0.000000 0.000000 0.000000 0.000000 0.000000 -4.957664 -0.260653 -0.440101 0.810236 -8.137154 0.077866 4.404026 35.197258 -0.554539 -29.149678 13.355012 1.224092 0.000000 0.000000 0.000000 0.000000 0.000000 0.000000 2.509433 -1.090116 42.774879 -2.689200 3.484996 -1.252299 1.694752 -0.257341 0.837238 0.000000 0.000000 0.000000 -0.004113 -0.327471 42.014008 -0.685083 0.360593 -0.299346 -14.125615 -20.476046 -14.411191 0.000000 0.000000 0.000000
-8.644427 75.110211 248.129542 0.205659 0.108190 -42.331948 -1.617812 -0.885544 42.270952 7.048323 -0.232318 0.566567 -5.525934 -1.380605 -0.116024 0.000000 0.000000 0.000000 -6.275899 2.064044 -0.704615 0.866596 0.075414 0.326723 17.338432 -2.539524 0.781816 -19.011476 2.801634 0.104990 0.000000 0.000000 0.000000 0.000000 0.000000 0.000000 -5.463801 -0.256257 -0.488565 0.968656 -9.926521 0.106381 5.262216 42.190791 -1.859340 -28.620311 10.095582 1.911412 0.000000 0.000000 0.000000 0.000000 0.000000 0.000000 2.415933 -0.946170 43.075750 -2.811527 3.585979 -1.296076 1.617868 -0.529117 0.923337 0.000000 0.000000 0.000000 -0.079178 -0.218476 42.331603 -0.844312 0.484363 -0.372183 -19.418570 -24.871513 -18.799564 0.000000 0.000000 0.000000
-8.710248 75.185867 248.382000 0.002042 -0.102736 -42.735585 -1.637778 -0.803161 42.668153 7.605397 -0.127852 0.608644 -5.904989 -1.458672 -0.134036 0.000000 0.000000 0.000000 -5.983775 1.972413 -0.918562 1.337781 -0.335190 0.266740 20.365591 -3.952813 2.156015 -21.476269 2.610349 -0.420362 0.000000 0.000000 0.000000 0.000000 0.000000 0.000000 -5.861679 -0.227502 -0.528553 1.083478 -11.403132 0.130315 6.321411 47.510769 -2.838594 -28.332748 8.178146 2.652251 0.000000 0.000000 0.000000 0.000000 0.000000 0.000000 2.318952 -0.347460 43.349721 -2.967498 3.339358 -1.210533 1.546706 -1.358882 0.715138 0.000000 0.000000 0.000000 -0.071218 0.074073 42.735633 -1.043627 0.559048 -0.455359 -16.268231 -22.082949 -15.190729 0.000000 0.000000 0.000000
